<?xml version="1.0" encoding="utf-8"?>
<!-- Generator: Adobe Illustrator 19.2.1, SVG Export Plug-In . SVG Version: 6.00 Build 0)  -->
<svg version="1.1" id="layer" xmlns="http://www.w3.org/2000/svg" xmlns:xlink="http://www.w3.org/1999/xlink" x="0px" y="0px"
	 viewBox="0 0 652 652" style="enable-background:new 0 0 652 652;" xml:space="preserve">
<style type="text/css">
	.st0{fill:#231815;}
	.st1{fill-rule:evenodd;clip-rule:evenodd;fill:#231815;}
</style>
<g>
	<path class="st0" d="M65.5,300.2c-0.7-0.1-1.4-0.1-2.1-0.1c-0.7,0-1.5,0-2.1,0.1l-2.2-21c1.4-0.1,2.9-0.2,4.3-0.2
		c1.4,0,2.9,0.1,4.3,0.2L65.5,300.2z"/>
	<path class="st0" d="M56.8,301.2c-0.7,0.2-1.4,0.5-2,0.7c-0.7,0.3-1.3,0.6-1.9,0.9l-10.2-18.5c1.3-0.7,2.5-1.3,3.9-1.9
		c1.3-0.6,2.7-1,4-1.5L56.8,301.2z"/>
	<path class="st0" d="M49.7,305.1c-0.5,0.5-1.1,1-1.6,1.5c-0.5,0.5-1,1-1.4,1.6l-16.6-13.1c0.9-1.1,1.8-2.2,2.9-3.3c1-1,2-2,3.1-2.9
		L49.7,305.1z"/>
	<path class="st0" d="M44.6,311.5c-0.3,0.6-0.6,1.3-0.9,2c-0.3,0.7-0.5,1.4-0.7,2l-20.3-5.9c0.4-1.4,0.9-2.7,1.4-4.1
		c0.5-1.3,1.1-2.6,1.8-3.9L44.6,311.5z"/>
	<path class="st0" d="M42.3,319.3c-0.1,0.7-0.1,1.4-0.1,2.1c0,0.7,0,1.5,0.1,2.1l-21,2.2c-0.1-1.4-0.2-2.9-0.2-4.3
		c0-1.4,0.1-2.9,0.2-4.3L42.3,319.3z"/>
	<path class="st0" d="M43.3,327.9c0.2,0.7,0.5,1.4,0.7,2c0.3,0.7,0.6,1.3,0.9,1.9l-18.5,10.2c-0.7-1.3-1.3-2.5-1.9-3.9
		c-0.6-1.3-1-2.7-1.5-4L43.3,327.9z"/>
	<path class="st0" d="M47.1,335c0.5,0.5,1,1.1,1.5,1.6c0.5,0.5,1,1,1.6,1.4l-13.1,16.6c-1.1-0.9-2.2-1.8-3.3-2.9c-1-1-2-2-2.9-3.1
		L47.1,335z"/>
	<path class="st0" d="M53.5,340.2c0.6,0.3,1.3,0.6,1.9,0.9c0.7,0.3,1.4,0.5,2,0.7l-5.9,20.3c-1.4-0.4-2.7-0.9-4.1-1.4
		c-1.3-0.5-2.6-1.1-3.9-1.8L53.5,340.2z"/>
	<path class="st0" d="M61.1,342.2c0.7,0.1,1.4,0.1,2.1,0.1c0.7,0,1.5,0,2.1-0.1l2.2,21c-1.4,0.1-2.9,0.2-4.3,0.2
		c-1.4,0-2.9-0.1-4.3-0.2L61.1,342.2z"/>
	<path class="st0" d="M69.8,341.2c0.7-0.2,1.4-0.5,2-0.7c0.7-0.3,1.3-0.6,1.9-0.9L84,358c-1.3,0.7-2.5,1.3-3.9,1.9
		c-1.3,0.6-2.7,1-4,1.5L69.8,341.2z"/>
	<path class="st0" d="M76.9,337.3c0.5-0.5,1.1-1,1.6-1.5c0.5-0.5,1-1.1,1.4-1.6l16.6,13c-0.9,1.1-1.8,2.2-2.8,3.3
		c-1,1-2.1,2-3.1,2.9L76.9,337.3z"/>
	<path class="st0" d="M82,330.9c0.3-0.6,0.6-1.3,0.9-1.9c0.3-0.7,0.5-1.3,0.7-2l20.3,5.9c-0.4,1.4-0.9,2.7-1.4,4.1
		c-0.5,1.3-1.1,2.6-1.8,3.9L82,330.9z"/>
	<path class="st0" d="M84.4,323.4c0.1-0.7,0.1-1.4,0.1-2.1c0-0.7,0-1.5-0.1-2.1l21-2.2c0.1,1.4,0.2,2.9,0.2,4.3
		c0,1.4-0.1,2.9-0.2,4.3L84.4,323.4z"/>
	<path class="st0" d="M83.3,314.7c-0.2-0.7-0.5-1.4-0.7-2c-0.3-0.7-0.6-1.3-0.9-1.9l18.5-10.2c0.7,1.3,1.3,2.5,1.9,3.9
		c0.6,1.3,1,2.7,1.5,4L83.3,314.7z"/>
	<path class="st0" d="M79.5,307.7c-0.5-0.5-1-1.1-1.5-1.6c-0.5-0.5-1-1-1.6-1.4l13-16.6c1.1,0.9,2.2,1.8,3.3,2.9c1,1,2,2,2.9,3.1
		L79.5,307.7z"/>
	<path class="st0" d="M73.1,302.5c-0.6-0.3-1.3-0.6-2-0.9c-0.7-0.3-1.4-0.5-2-0.7l5.9-20.3c1.4,0.4,2.7,0.9,4.1,1.4
		c1.3,0.5,2.6,1.1,3.9,1.8L73.1,302.5z"/>
	<polygon class="st0" points="288.4,357.3 307.8,357.3 307.8,300.7 335.4,300.7 335.4,285.5 260.7,285.5 260.7,300.7 288.4,300.7 	
		"/>
	<path class="st1" d="M417.9,320.7c0,21.4,16.6,38.5,44.8,38.5c27.9,0,44.8-17.1,44.8-38.5c0-22-16.6-37.5-44.8-37.5
		C434.4,283.2,417.9,298.7,417.9,320.7 M440.3,322.2c0-13,4.8-24.4,22.2-24.6c17.6-0.2,24.6,11.3,23.6,24.2
		c-0.9,12-6.3,22.4-23.6,22.4C445.6,344.2,440.3,333.8,440.3,322.2"/>
	<polygon class="st0" points="513.2,357.3 532.6,357.3 532.6,311.5 532.9,311.5 570.1,357.3 592.5,357.3 592.5,285.4 572.8,285.5 
		572.8,332.3 572.6,332.3 535.3,285.5 513.2,285.5 	"/>
	<polygon class="st0" points="115.5,357.4 176.4,357.4 176.4,342.1 134.9,342.1 134.9,285.4 115.5,285.4 	"/>
	<path class="st0" d="M256.4,285.4H237v44c0,11-6.2,15.3-20.5,15.3c-14,0-20.4-4.3-20.4-15.3v-44h-19.3v44
		c0,20.1,15.2,29.8,39.7,29.8c24.4,0,39.8-9.8,39.8-29.8V285.4z"/>
	<path class="st1" d="M339.6,357.4h18v-28h29c7.5-0.1,8.9,3.6,10.1,11.2c1.5,9.4,2.8,17.1,8.2,16.8h15.2c-4.4,0.9-5.7-11.7-6.6-17.6
		c-2.5-15.8-5.2-16.6-12.6-16.9l-0.1-0.3c9.3-2.9,15.2-10.1,15-18.8c-0.3-11.6-8.3-19.5-27.2-18.3h-49.1V357.4z M357.3,300.2h24
		c8.9,0,15.2,1.3,15.2,8.4c0,7.5-6.2,8.5-15.2,8.5h-24V300.2z"/>
	<path class="st1" d="M621.1,347.2c0-5.5-4.5-10-10-10c-5.5,0-10,4.5-10,10c0,5.5,4.5,10,10,10C616.6,357.1,621.1,352.7,621.1,347.2
		 M619.9,347.2c0,4.9-4,8.8-8.8,8.8c-4.9,0-8.8-3.9-8.8-8.8c0-4.9,3.9-8.8,8.8-8.8C615.9,338.4,619.9,342.3,619.9,347.2
		 M607.4,352.4h1.4v-4.7h3.6c2.3,0,1.6,2,1.9,3.3l0.2,1.4h1.7c-0.6-1-0.4-1.2-0.5-2.6c-0.2-1.9-0.2-2.1-1.3-2.8
		c1.1-0.8,1.5-1.3,1.5-2.7c-0.1-2.5-1.8-2.8-3.5-2.8h-4.9V352.4z M612.3,342.7c0.9,0,2.2,0.2,2,2.1c-0.1,1.4-1.1,1.7-2,1.7h-3.5
		v-3.8H612.3z"/>
	<path class="st0" d="M607.4,352.4v-11h4.9c1.7,0,3.4,0.3,3.5,2.8c0.1,1.4-0.4,1.9-1.5,2.7c1.1,0.7,1.2,0.9,1.3,2.8
		c0.1,1.5-0.1,1.7,0.5,2.6h-1.7l-0.2-1.4c-0.2-1.3,0.4-3.3-1.9-3.3h-3.6v4.7H607.4z M612.3,342.7h-3.5v3.8h3.5c1,0,1.9-0.3,2-1.7
		C614.5,342.9,613.2,342.7,612.3,342.7"/>
</g>
</svg>
